# xmcd
#
# Track frame offsets: 
#        150
#        23777
#        47147
#        61750
#        86705
#        107227
#        127692
#        153050
#        178317
#        209565
#        231622
#        253812
#        268015
#
# Disc length: 3848 seconds
#
# Revision: 2
# Processed by: cddbd v1.5.2PL0 Copyright (c) Steve Scherf et al.
# Submitted via: ExactAudioCopy v1.0b1
#
DISCID=b70f060d
DTITLE=Taylor Eigsti - Lucky To Be Me
DYEAR=2006
DGENRE=Jazz
TTITLE0=Giant Steps
TTITLE1=Get Your Hopes Up
TTITLE2=Love For Sale
TTITLE3=I've Seen It All
TTITLE4=Argument
TTITLE5=True Colors
TTITLE6=Woke Up This Morning
TTITLE7=Promenade
TTITLE8=Adventure One
TTITLE9=Darn That Dream
TTITLE10=Freedom Jazz Dance
TTITLE11=Lucky To Be Me
TTITLE12=Pure Imagination
EXTD=YEAR: 2006
EXTT0=
EXTT1=
EXTT2=
EXTT3=
EXTT4=
EXTT5=
EXTT6=
EXTT7=
EXTT8=
EXTT9=
EXTT10=
EXTT11=
EXTT12=
PLAYORDER=
